<svg xmlns="http://www.w3.org/2000/svg" xmlns:xlink="http://www.w3.org/1999/xlink" viewBox="0 0 392.87 128.87"><defs><style>.cls-1{fill:none;}.cls-2{isolation:isolate;}.cls-3{clip-path:url(#clip-path);}.cls-4{fill:#2b3990;}.cls-5{fill:url(#linear-gradient);}.cls-6{fill:url(#linear-gradient-2);}.cls-7{fill:url(#linear-gradient-3);}.cls-8{fill:url(#linear-gradient-4);}.cls-9{fill:url(#linear-gradient-5);}.cls-10{fill:url(#linear-gradient-6);}.cls-11{fill:url(#linear-gradient-7);}.cls-12{fill:#2a3b8f;}.cls-13{fill:#231f20;}.cls-14{fill:#06a2cd;mix-blend-mode:multiply;}.cls-15{fill:#fff;}</style><clipPath id="clip-path"><circle class="cls-1" cx="104.06" cy="64.43" r="44.58"/></clipPath><linearGradient id="linear-gradient" x1="77" y1="43.18" x2="149.42" y2="43.18" gradientUnits="userSpaceOnUse"><stop offset="0" stop-color="#8cd2cb"/><stop offset="0.32" stop-color="#04afd2"/><stop offset="0.7" stop-color="#1771b9"/><stop offset="1" stop-color="#1f489a"/></linearGradient><linearGradient id="linear-gradient-2" x1="161.93" y1="72.2" x2="64.21" y2="40.39" xlink:href="#linear-gradient"/><linearGradient id="linear-gradient-3" x1="176.2" y1="105.6" x2="59.61" y2="60.17" xlink:href="#linear-gradient"/><linearGradient id="linear-gradient-4" x1="137.61" y1="125.9" x2="57" y2="83.08" xlink:href="#linear-gradient"/><linearGradient id="linear-gradient-5" x1="132.11" y1="109.98" x2="46.11" y2="64.29" xlink:href="#linear-gradient"/><linearGradient id="linear-gradient-6" x1="150.78" y1="61.03" x2="51.87" y2="28.83" xlink:href="#linear-gradient"/><linearGradient id="linear-gradient-7" x1="159.3" y1="85.74" x2="43.32" y2="40.55" xlink:href="#linear-gradient"/></defs><g class="cls-2"><g id="Layer_1" data-name="Layer 1"><g class="cls-3"><circle class="cls-4" cx="104.06" cy="64.43" r="46.23"/><path class="cls-5" d="M133.35,41.32a40.73,40.73,0,0,0-23.46-7.82,38.42,38.42,0,0,0-20,5.61,43.83,43.83,0,0,0-4.65,3.56l-.65.61-.77-.46C79.7,40.34,77.16,36.64,77,32.9c-.12-3.15,1.46-6.07,4.45-8.25l0,0,.17-.11a46.14,46.14,0,0,1,23.19-6.23c16.39,0,31.69,8.3,39.15,21.81,6.36,11.54,5.35,28,5.35,28S147.18,51,133.35,41.32Z"/><path class="cls-6" d="M102.07,70.16a42.93,42.93,0,0,1-20.89-5.11A31.11,31.11,0,0,1,65.06,41.54L65,41.12l.22-.37a46.26,46.26,0,0,1,6.14-8.08l2.33-2.3-.27,3.17a18.78,18.78,0,0,0,5.3,14.27c5.12,5.32,13.49,8.37,23,8.37,11.91,0,22.79-4.8,29.11-12.84l.72-.92.94.71a38.46,38.46,0,0,1,8.64,9.33l.2.3v.85l-.34.36A55.76,55.76,0,0,1,102.07,70.16Z"/><path class="cls-7" d="M117,98.19a72.29,72.29,0,0,1-15-1.58C82.36,92.46,66.62,80.94,58.81,65l-.12-.25v-.28a47.19,47.19,0,0,1,.6-7.48l.7-3.48,1.54,3.12c12.8,24.47,39.69,27.11,50.66,27.12h0c13.26,0,26.13-3.39,33.58-8.85l1.73-1.46.17,2.51c-.38,5.74-3.88,13.87-6.76,17.3l-.06.08-.21.18-.17.07A58.43,58.43,0,0,1,117,98.19Z"/><path class="cls-8" d="M104.86,110.6A46.19,46.19,0,0,1,62.59,83l2.12-1.1c.5.84,12.82,20.62,52,24.77l1.44.67L116.85,109A46.59,46.59,0,0,1,104.86,110.6Z"/><path class="cls-9" d="M116.48,109.07h-.06c-40.31-4.27-53.23-25-53.76-25.92l0-.06-.07-.14A45.43,45.43,0,0,1,60,75.25l-1-5.43,3.11,4.45c9,12.19,23,20.82,39.48,24.3a75.76,75.76,0,0,0,15.62,1.66,64.82,64.82,0,0,0,15.42-1.8l5.3-1.31-4.26,3.4A45.91,45.91,0,0,1,116.88,109l-.16,0Z"/><path class="cls-10" d="M101.67,58.57c-10.11,0-19.1-3.32-24.67-9.1a21.39,21.39,0,0,1-6-16l0-.45.31-.34a45.88,45.88,0,0,1,10.3-8.14l2-1.09c-2.42,1.72-4.92,5.53-4.23,9.38a11.5,11.5,0,0,0,5.37,7.78l.39.24a20.86,20.86,0,0,0,10.62,2.69c6.48,0,13.38-2.48,20-7.18l.31-.23h.5l.11,0a37.36,37.36,0,0,1,15.52,6.79l1.25.93-.76,1C125.89,53.43,114.31,58.57,101.67,58.57Z"/><path class="cls-11" d="M112.19,86.15c-11.4,0-39.37-2.77-52.77-28.4l-.14-.26V57a45.17,45.17,0,0,1,2.78-9.92l1.28-3.14,1,3.25A32.9,32.9,0,0,0,80.21,66.8a45.3,45.3,0,0,0,22.05,5.39,56.91,56.91,0,0,0,39.3-15.92l1.17-1.16.74,1.46A37.28,37.28,0,0,1,147.68,76l0,.55-.45.33C139.35,82.58,125.94,86.15,112.19,86.15Z"/></g><path class="cls-12" d="M166.11,88.16V80.42h1.35V87h3.42v1.2Z"/><path class="cls-12" d="M178.6,84.29a4,4,0,1,1,4,4A3.84,3.84,0,0,1,178.6,84.29Zm6.52,0a2.57,2.57,0,1,0-2.56,2.8A2.57,2.57,0,0,0,185.12,84.29Z"/><path class="cls-12" d="M199.44,88.16l-1.72-2.89h-1.34v2.89H195V80.42h3.4A2.35,2.35,0,0,1,201,82.84a2.18,2.18,0,0,1-1.83,2.28l1.89,3Zm.12-5.32a1.23,1.23,0,0,0-1.33-1.23h-1.85v2.46h1.85A1.22,1.22,0,0,0,199.56,82.84Z"/><path class="cls-12" d="M209.5,88.16V80.42h5.3v1.19h-4v2h3.87v1.2h-3.87V87h4v1.2Z"/><path class="cls-12" d="M230.07,88.16V82.41l-2.38,5.75h-.58l-2.37-5.75v5.75h-1.36V80.42h1.92l2.1,5.09,2.11-5.09h1.92v7.74Z"/><path class="cls-12" d="M250.44,88.16V80.42h1.36v7.74Z"/><path class="cls-12" d="M260.64,88.16V80.42H264a2.43,2.43,0,1,1,0,4.85H262v2.89Zm4.54-5.32a1.23,1.23,0,0,0-1.33-1.23H262v2.46h1.86A1.22,1.22,0,0,0,265.18,82.84Z"/><path class="cls-12" d="M274.38,87.07l.76-1a3.33,3.33,0,0,0,2.45,1.07c1.11,0,1.55-.54,1.55-1.06,0-1.62-4.51-.61-4.51-3.47,0-1.27,1.12-2.26,2.82-2.26a4,4,0,0,1,2.9,1.08l-.78,1a3.16,3.16,0,0,0-2.24-.88c-.8,0-1.31.38-1.31,1,0,1.44,4.5.55,4.5,3.44,0,1.28-.9,2.39-3,2.39A4.16,4.16,0,0,1,274.38,87.07Z"/><path class="cls-12" d="M289,85.11V80.42h1.37v4.64a2,2,0,1,0,4,0V80.42h1.37v4.67c0,1.93-1.11,3.21-3.35,3.21S289,87,289,85.11Z"/><path class="cls-12" d="M311.19,88.16V82.41l-2.38,5.75h-.58l-2.37-5.75v5.75H304.5V80.42h1.92l2.1,5.09,2.11-5.09h1.92v7.74Z"/><path class="cls-13" d="M178.91,50.37a9.32,9.32,0,0,0-6.19-2.44c-5.22,0-8.39,4-8.39,9,0,4,2.33,8.14,8.39,8.14a8.09,8.09,0,0,0,5.49-1.95V58.79H172V54.68h10.44V65a12.14,12.14,0,0,1-9.7,4.38c-9.16,0-12.88-6-12.88-12.42,0-6.86,4.28-13.19,12.88-13.19a12.84,12.84,0,0,1,9,3.72Z"/><path class="cls-13" d="M199.47,51.62h4.07V68.77h-4l-.21-2.5c-1,2-3.65,3-5.56,3-5.08,0-8.84-3.1-8.84-9.12s3.93-9,8.94-9A6.28,6.28,0,0,1,199.33,54Zm-10.3,8.56a4.91,4.91,0,0,0,5.08,5.22c6.68,0,6.68-10.4,0-10.4A4.88,4.88,0,0,0,189.17,60.18Z"/><path class="cls-13" d="M219.76,68.77v-9c0-2.61-1.43-4.6-4.14-4.6A4.52,4.52,0,0,0,211.23,60v8.76H207V51.59h3.79l.28,2.33a7.73,7.73,0,0,1,5.64-2.58c4,0,7.27,3,7.27,8.42v9Z"/><path class="cls-13" d="M232.28,46.78c0,3.31-5,3.31-5,0S232.28,43.48,232.28,46.78Zm-4.63,4.77V68.77h4.25V51.55Z"/><path class="cls-13" d="M241.71,46.78v4.87h4.73v3.66h-4.76v7.41a2.13,2.13,0,0,0,2.22,2.44,4.73,4.73,0,0,0,2-.53l1.19,3.62a9.36,9.36,0,0,1-3.52.73c-3.72.14-6.15-2-6.15-6.26V55.31h-3.21V51.65h3.21V47.24Z"/><path class="cls-13" d="M263.21,51.62h4.07V68.77h-4l-.21-2.5c-1,2-3.65,3-5.56,3-5.08,0-8.84-3.1-8.84-9.12s3.93-9,8.94-9A6.28,6.28,0,0,1,263.07,54Zm-10.3,8.56A4.92,4.92,0,0,0,258,65.4c6.68,0,6.68-10.4,0-10.4A4.89,4.89,0,0,0,252.91,60.18Z"/><path class="cls-13" d="M275.08,44.45V68.77h-4.21V44.45Z"/><path class="cls-13" d="M292.4,51.62h4.07V68.77h-4l-.21-2.5c-1,2-3.65,3-5.56,3-5.08,0-8.84-3.1-8.84-9.12s3.93-9,8.94-9A6.28,6.28,0,0,1,292.26,54Zm-10.3,8.56a4.92,4.92,0,0,0,5.08,5.22c6.69,0,6.69-10.4,0-10.4A4.89,4.89,0,0,0,282.1,60.18Z"/><path class="cls-13" d="M316.62,51.62,306.15,75.94h-4.67l3.21-7.45-6.86-16.87h4.94L305.38,59,307,63.87l1.77-4.73,3.13-7.52Z"/><path class="cls-13" d="M332.45,51.62h4.07V68.77h-4l-.21-2.5c-1,2-3.65,3-5.56,3-5.08,0-8.84-3.1-8.84-9.12s3.93-9,8.94-9A6.28,6.28,0,0,1,332.31,54Zm-10.3,8.56a4.91,4.91,0,0,0,5.08,5.22c6.68,0,6.68-10.4,0-10.4A4.88,4.88,0,0,0,322.15,60.18Z"/><path class="cls-14" d="M81.41,68.4c0-15,11.34-24.45,25.16-24.45,9.85,0,16,5,19.56,10.56L117.77,59a13.4,13.4,0,0,0-11.2-6.16c-8.57,0-14.81,6.59-14.81,15.52S98,83.92,106.57,83.92a15.94,15.94,0,0,0,10.07-3.62V74.63H104.16V65.85H126.7V84a26.22,26.22,0,0,1-20.13,8.93C92.75,92.92,81.41,83.28,81.41,68.4Z"/><path class="cls-15" d="M79.41,66.4c0-15,11.34-24.45,25.16-24.45,9.85,0,16,5,19.56,10.56L115.77,57a13.4,13.4,0,0,0-11.2-6.16c-8.57,0-14.81,6.59-14.81,15.52S96,81.92,104.57,81.92a15.94,15.94,0,0,0,10.07-3.62V72.63H102.16V63.85H124.7V82a26.22,26.22,0,0,1-20.13,8.93C90.75,90.92,79.41,81.28,79.41,66.4Z"/></g></g></svg>