<svg id="a3cd8353-3e61-4bf7-9e17-725a179f31f4" data-name="Layer 1" xmlns="http://www.w3.org/2000/svg" xmlns:xlink="http://www.w3.org/1999/xlink" viewBox="0 0 48 48"><defs><style>.ae78c163-d188-4e71-933e-3c61ec80703e{fill:#0a83b1;}.a648f693-0cd9-4dd3-af6a-86893a90a143{fill:none;stroke:#00a2cb;stroke-miterlimit:10;stroke-width:0.18px;}.be052707-6111-4f3a-b6d3-7d7452af6bbc{clip-path:url(#f6fb7fab-1ca9-4b0b-8b22-4be41a41d4f7);}.af7f4d57-423e-4f91-9548-ca4e5307db6e{fill:#26ace3;}.b7cb130c-681f-4f76-9000-d4899fadca72{fill:#0276a1;}.a30a4b83-20da-4b4d-889a-790916330734{fill:#06a0db;}.fca4c77d-0ab7-4e94-9738-893bb7257792{fill:#016981;}.aabf53a2-da3c-47d5-a35e-84d429ff0773{fill:#68ccef;}.fc210b4b-2dc8-4fa9-9376-7330ac20be8a{fill:#1b8aa5;}.a5d27002-073e-4bb8-ad35-d90daf38d1f3{clip-path:url(#b09725fe-1673-446f-9335-1b6d5237ba14);}.f65b7277-5ac9-4f0d-a232-4963e9eca7bb{fill:#00a2cb;}.a90033ab-7858-4313-a47a-3efc4ae86a72{clip-path:url(#e16c78f4-9cac-428e-b343-d1bdffb3151d);}</style><clipPath id="f6fb7fab-1ca9-4b0b-8b22-4be41a41d4f7"><path class="ae78c163-d188-4e71-933e-3c61ec80703e" d="M24,22.37l4.37-7.59h0l7.15-6.26.05,0h0L44.1,6.9h0l3,1h0s0,0,0,0h0V8h0V8h0l-1.12,3.14-5.48,13.3s0,0,0,0l0,0h0l-2.88.61,3.14,2h0a0,0,0,0,0,0,0,.05.05,0,0,1,0,0h0l1,3.58h0s0,0,0,0v.05h0L35.94,41.94l0,0h0l0,0h0l-3.92.45h0l-.06,0L27,38.62v0h0L24,32.32h0s0,0,0,0Z"/></clipPath><clipPath id="b09725fe-1673-446f-9335-1b6d5237ba14"><path class="a648f693-0cd9-4dd3-af6a-86893a90a143" d="M24,22.37l-4.37-7.59h0L12.45,8.49l0,0h0L3.9,6.9h0l-3,1h0s0,0,0,0h0V8h0V8h0l1.12,3.14,5.48,13.3s0,0,0,0l0,0h.05l2.88.61-3.14,2h0a0,0,0,0,1,0,0,.05.05,0,0,0,0,0h0l-1,3.58h0s0,0,0,0v.05h0l5.92,11.07,0,0h0l.05,0h0l3.92.45h0l.06,0,4.92-3.8v0h0L24,32.32h0s0,0,0,0Z"/></clipPath><clipPath id="e16c78f4-9cac-428e-b343-d1bdffb3151d"><path class="ae78c163-d188-4e71-933e-3c61ec80703e" d="M-98.07,18.58-84.41-5.17h0l0-.05s0,0,0,0L-62-24.84a.33.33,0,0,1,.16-.07h0l26.58-4.9h0a.29.29,0,0,1,.16,0l9.44,3.15h0l0,0h.05l0,0,0,.06h0s0,0,0,0a.24.24,0,0,1,0,.08s0,0,0,.05,0,0,0,0v.06s0,0,0,0l-3.51,9.81L-46,25.21s0,0,0,0a.16.16,0,0,1-.06.08s0,0,0,0h0l0,0s0,0-.06,0l-9,1.93,9.81,6.22s0,0,0,0,0,0,0,0a.5.5,0,0,1,.08.12h0l3.14,11.19a0,0,0,0,1,0,0v0h0v0a.37.37,0,0,1,0,.12.08.08,0,0,0,0,0h0L-60.75,79.8l-.06.07s0,0,0,0A.38.38,0,0,1-61,80h0l-12.24,1.39h0a.48.48,0,0,1-.2-.07l-15.39-11.9,0,0h0s0,0,0,0h0l0,0-9.1-19.59v0a.45.45,0,0,1,0-.11Z"/></clipPath></defs><path class="ae78c163-d188-4e71-933e-3c61ec80703e" d="M24,22.37l4.37-7.59h0l7.15-6.26.05,0h0L44.1,6.9h0l3,1h0s0,0,0,0h0V8h0V8h0l-1.12,3.14-5.48,13.3s0,0,0,0l0,0h0l-2.88.61,3.14,2h0a0,0,0,0,0,0,0,.05.05,0,0,1,0,0h0l1,3.58h0s0,0,0,0v.05h0L35.94,41.94l0,0h0l0,0h0l-3.92.45h0l-.06,0L27,38.62v0h0L24,32.32h0s0,0,0,0Z"/><g class="be052707-6111-4f3a-b6d3-7d7452af6bbc"><polygon class="af7f4d57-423e-4f91-9548-ca4e5307db6e" points="5.08 44 10.39 47 6.85 47 5.08 44"/><polygon class="b7cb130c-681f-4f76-9000-d4899fadca72" points="4.97 43.77 6.83 40.62 12.51 43.83 10.65 46.97 4.97 43.77"/><polygon class="af7f4d57-423e-4f91-9548-ca4e5307db6e" points="12.82 44 18.13 47 14.59 47 12.82 44"/><polygon class="af7f4d57-423e-4f91-9548-ca4e5307db6e" points="20.56 44 25.87 47 22.33 47 20.56 44"/><polygon class="af7f4d57-423e-4f91-9548-ca4e5307db6e" points="28.3 44 33.61 47 30.07 47 28.3 44"/><polygon class="af7f4d57-423e-4f91-9548-ca4e5307db6e" points="36.05 44 41.36 47 37.82 47 36.05 44"/><polygon class="af7f4d57-423e-4f91-9548-ca4e5307db6e" points="43.79 44 49.1 47 45.56 47 43.79 44"/><polygon class="b7cb130c-681f-4f76-9000-d4899fadca72" points="51.22 4.5 49.36 7.65 43.68 4.44 45.54 1.3 51.22 4.5"/><polygon class="b7cb130c-681f-4f76-9000-d4899fadca72" points="43.48 4.5 41.62 7.65 35.94 4.44 37.8 1.3 43.48 4.5"/><polygon class="b7cb130c-681f-4f76-9000-d4899fadca72" points="33.9 3.47 33.9 3.47 35.73 4.5 33.9 7.6 33.9 7.6 33.87 7.65 28.2 4.44 30.06 1.3 33.9 3.47"/><polygon class="b7cb130c-681f-4f76-9000-d4899fadca72" points="27.99 4.5 26.13 7.65 20.46 4.44 22.32 1.3 27.99 4.5"/><polygon class="b7cb130c-681f-4f76-9000-d4899fadca72" points="20.25 4.5 18.39 7.65 12.71 4.44 14.57 1.3 20.25 4.5"/><polygon class="af7f4d57-423e-4f91-9548-ca4e5307db6e" points="18.37 40.45 14.83 40.45 20.14 37.45 18.37 40.45"/><polygon class="af7f4d57-423e-4f91-9548-ca4e5307db6e" points="26.12 40.45 22.57 40.45 27.89 37.45 26.12 40.45"/><polygon class="af7f4d57-423e-4f91-9548-ca4e5307db6e" points="33.86 40.45 30.32 40.45 33.9 38.42 33.9 38.42 35.63 37.45 33.9 40.37 33.9 40.37 33.86 40.45"/><polygon class="af7f4d57-423e-4f91-9548-ca4e5307db6e" points="41.6 40.45 38.06 40.45 43.37 37.45 41.6 40.45"/><polygon class="af7f4d57-423e-4f91-9548-ca4e5307db6e" points="49.34 40.45 45.8 40.45 51.11 37.45 49.34 40.45"/><polygon class="a30a4b83-20da-4b4d-889a-790916330734" points="45.56 7.83 49.1 7.83 43.79 10.82 45.56 7.83"/><polygon class="a30a4b83-20da-4b4d-889a-790916330734" points="37.82 7.83 41.36 7.83 36.05 10.82 37.82 7.83"/><polygon class="a30a4b83-20da-4b4d-889a-790916330734" points="30.07 7.83 33.61 7.83 28.3 10.82 30.07 7.83"/><polygon class="a30a4b83-20da-4b4d-889a-790916330734" points="22.33 7.83 25.87 7.83 20.56 10.82 22.33 7.83"/><polygon class="b7cb130c-681f-4f76-9000-d4899fadca72" points="20.25 11 14.57 14.2 12.71 11.05 18.39 7.85 20.25 11"/><polygon class="b7cb130c-681f-4f76-9000-d4899fadca72" points="12.76 24.14 12.76 24.14 18.39 20.96 20.25 24.11 20.2 24.14 20.2 24.14 14.57 27.31 12.71 24.16 12.76 24.14"/><polygon class="fca4c77d-0ab7-4e94-9738-893bb7257792" points="33.9 12.21 33.9 12.21 35.63 11.23 33.9 14.15 33.9 14.15 33.86 14.23 30.32 14.23 33.9 12.21"/><polygon class="af7f4d57-423e-4f91-9548-ca4e5307db6e" points="20.56 30.89 25.87 33.89 22.33 33.89 20.56 30.89"/><polygon class="af7f4d57-423e-4f91-9548-ca4e5307db6e" points="28.3 30.89 33.61 33.89 30.07 33.89 28.3 30.89"/><polygon class="af7f4d57-423e-4f91-9548-ca4e5307db6e" points="36.05 30.89 41.36 33.89 37.82 33.89 36.05 30.89"/><polygon class="af7f4d57-423e-4f91-9548-ca4e5307db6e" points="43.79 30.89 49.1 33.89 45.56 33.89 43.79 30.89"/><polygon class="b7cb130c-681f-4f76-9000-d4899fadca72" points="51.17 24.14 45.54 27.31 43.68 24.16 43.73 24.14 43.73 24.14 49.36 20.96 51.22 24.11 51.17 24.14 51.17 24.14"/><polygon class="b7cb130c-681f-4f76-9000-d4899fadca72" points="51.22 17.61 49.36 20.76 43.68 17.55 45.54 14.41 51.22 17.61"/><polygon class="a30a4b83-20da-4b4d-889a-790916330734" points="43.37 17.38 38.06 14.38 41.6 14.38 43.37 17.38"/><polygon class="a30a4b83-20da-4b4d-889a-790916330734" points="35.63 17.38 33.9 16.4 33.9 16.4 30.32 14.38 33.86 14.38 33.9 14.45 33.9 14.45 35.63 17.38"/><polygon class="a30a4b83-20da-4b4d-889a-790916330734" points="27.89 17.38 22.57 14.38 26.12 14.38 27.89 17.38"/><polygon class="ae78c163-d188-4e71-933e-3c61ec80703e" points="20.51 24.14 20.51 24.14 26.13 20.96 27.99 24.11 27.94 24.14 27.94 24.14 22.32 27.31 20.46 24.16 20.51 24.14"/><polygon class="fca4c77d-0ab7-4e94-9738-893bb7257792" points="26.12 27.34 22.57 27.34 27.89 24.34 26.12 27.34"/><polygon class="b7cb130c-681f-4f76-9000-d4899fadca72" points="33.86 27.34 30.32 27.34 33.9 25.31 33.9 25.31 35.63 24.34 33.9 27.26 33.9 27.26 33.86 27.34"/><polygon class="af7f4d57-423e-4f91-9548-ca4e5307db6e" points="41.6 27.34 38.06 27.34 43.37 24.34 41.6 27.34"/><polygon class="b7cb130c-681f-4f76-9000-d4899fadca72" points="35.94 24.16 35.99 24.14 35.99 24.14 41.62 20.96 43.48 24.11 43.43 24.14 43.43 24.14 37.8 27.31 35.94 24.16"/><polygon class="a30a4b83-20da-4b4d-889a-790916330734" points="37.82 20.93 41.36 20.93 36.05 23.93 37.82 20.93"/><polygon class="fca4c77d-0ab7-4e94-9738-893bb7257792" points="28.2 24.16 28.25 24.14 28.25 24.14 33.87 20.96 33.9 21.01 33.9 21.01 35.73 24.11 35.68 24.14 35.68 24.14 33.9 25.14 33.9 25.14 30.06 27.31 28.2 24.16"/><polygon class="a30a4b83-20da-4b4d-889a-790916330734" points="30.07 20.93 33.61 20.93 28.3 23.93 30.07 20.93"/><polygon class="aabf53a2-da3c-47d5-a35e-84d429ff0773" points="26.25 20.86 28.09 17.73 29.94 20.86 28.09 23.99 26.25 20.86"/><polygon class="af7f4d57-423e-4f91-9548-ca4e5307db6e" points="28.3 17.79 33.61 20.78 30.07 20.78 28.3 17.79"/><polygon class="ae78c163-d188-4e71-933e-3c61ec80703e" points="33.99 20.86 35.84 17.73 37.69 20.86 35.84 23.99 33.99 20.86"/><polygon class="af7f4d57-423e-4f91-9548-ca4e5307db6e" points="36.05 17.79 41.36 20.78 37.82 20.78 36.05 17.79"/><polygon class="ae78c163-d188-4e71-933e-3c61ec80703e" points="41.73 20.86 43.58 17.73 45.43 20.86 43.58 23.99 41.73 20.86"/><polygon class="af7f4d57-423e-4f91-9548-ca4e5307db6e" points="43.79 17.79 49.1 20.78 45.56 20.78 43.79 17.79"/><polygon class="a30a4b83-20da-4b4d-889a-790916330734" points="49.1 20.93 43.79 23.93 45.56 20.93 49.1 20.93"/><polygon class="ae78c163-d188-4e71-933e-3c61ec80703e" points="43.58 24.28 45.43 27.41 43.58 30.54 41.73 27.41 43.58 24.28"/><polygon class="a30a4b83-20da-4b4d-889a-790916330734" points="43.37 30.48 38.06 27.49 41.6 27.49 43.37 30.48"/><polygon class="aabf53a2-da3c-47d5-a35e-84d429ff0773" points="37.69 27.41 35.84 30.54 33.99 27.41 35.84 24.28 37.69 27.41"/><polygon class="a30a4b83-20da-4b4d-889a-790916330734" points="35.63 30.48 33.9 29.51 33.9 29.51 30.32 27.49 33.86 27.49 33.9 27.56 33.9 27.56 35.63 30.48"/><polygon class="a30a4b83-20da-4b4d-889a-790916330734" points="29.94 27.41 28.09 30.54 26.25 27.41 28.09 24.28 29.94 27.41"/><polygon class="aabf53a2-da3c-47d5-a35e-84d429ff0773" points="27.89 30.48 22.57 27.49 26.12 27.49 27.89 30.48"/><polygon class="ae78c163-d188-4e71-933e-3c61ec80703e" points="22.2 27.41 20.35 30.54 18.5 27.41 20.35 24.28 22.2 27.41"/><polygon class="fca4c77d-0ab7-4e94-9738-893bb7257792" points="20.56 23.93 22.33 20.93 25.87 20.93 20.56 23.93"/><polygon class="af7f4d57-423e-4f91-9548-ca4e5307db6e" points="20.56 17.79 25.87 20.78 22.33 20.78 20.56 17.79"/><polygon class="b7cb130c-681f-4f76-9000-d4899fadca72" points="20.46 17.55 22.32 14.41 27.99 17.61 26.13 20.76 20.46 17.55"/><polygon class="b7cb130c-681f-4f76-9000-d4899fadca72" points="28.2 17.55 30.06 14.41 33.9 16.57 33.9 16.57 35.73 17.61 33.9 20.71 33.9 20.71 33.87 20.76 28.2 17.55"/><polygon class="ae78c163-d188-4e71-933e-3c61ec80703e" points="35.94 17.55 37.8 14.41 43.48 17.61 41.62 20.76 35.94 17.55"/><polygon class="b7cb130c-681f-4f76-9000-d4899fadca72" points="51.22 30.72 49.36 33.86 43.68 30.66 45.54 27.51 51.22 30.72"/><polygon class="fca4c77d-0ab7-4e94-9738-893bb7257792" points="43.48 30.72 41.62 33.86 35.94 30.66 37.8 27.51 43.48 30.72"/><polygon class="ae78c163-d188-4e71-933e-3c61ec80703e" points="35.73 30.72 33.9 33.82 33.9 33.82 33.87 33.86 28.2 30.66 30.06 27.51 33.9 29.68 33.9 29.68 35.73 30.72"/><polygon class="b7cb130c-681f-4f76-9000-d4899fadca72" points="27.99 30.72 26.13 33.86 20.46 30.66 22.32 27.51 27.99 30.72"/><polygon class="a30a4b83-20da-4b4d-889a-790916330734" points="20.14 30.48 14.83 27.49 18.37 27.49 20.14 30.48"/><polygon class="af7f4d57-423e-4f91-9548-ca4e5307db6e" points="14.83 27.34 20.14 24.34 18.37 27.34 14.83 27.34"/><polygon class="ae78c163-d188-4e71-933e-3c61ec80703e" points="20.35 23.99 18.5 20.86 20.35 17.73 22.2 20.86 20.35 23.99"/><polygon class="a30a4b83-20da-4b4d-889a-790916330734" points="20.14 17.38 14.83 14.38 18.37 14.38 20.14 17.38"/><polygon class="af7f4d57-423e-4f91-9548-ca4e5307db6e" points="14.83 14.23 20.14 11.23 18.37 14.23 14.83 14.23"/><polygon class="ae78c163-d188-4e71-933e-3c61ec80703e" points="20.35 11.18 22.2 14.3 20.35 17.43 18.5 14.3 20.35 11.18"/><polygon class="af7f4d57-423e-4f91-9548-ca4e5307db6e" points="22.57 14.23 27.89 11.23 26.12 14.23 22.57 14.23"/><polygon class="ae78c163-d188-4e71-933e-3c61ec80703e" points="28.09 11.18 29.94 14.3 28.09 17.43 26.25 14.3 28.09 11.18"/><polygon class="fc210b4b-2dc8-4fa9-9376-7330ac20be8a" points="35.84 11.18 37.69 14.3 35.84 17.43 33.99 14.3 35.84 11.18"/><polygon class="fca4c77d-0ab7-4e94-9738-893bb7257792" points="38.06 14.23 43.37 11.23 41.6 14.23 38.06 14.23"/><polygon class="fc210b4b-2dc8-4fa9-9376-7330ac20be8a" points="43.58 11.18 45.43 14.3 43.58 17.43 41.73 14.3 43.58 11.18"/><polygon class="af7f4d57-423e-4f91-9548-ca4e5307db6e" points="49.34 14.23 45.8 14.23 51.11 11.23 49.34 14.23"/><polygon class="a30a4b83-20da-4b4d-889a-790916330734" points="51.11 17.38 45.8 14.38 49.34 14.38 51.11 17.38"/><polygon class="af7f4d57-423e-4f91-9548-ca4e5307db6e" points="51.11 24.34 49.34 27.34 45.8 27.34 51.11 24.34"/><polygon class="a30a4b83-20da-4b4d-889a-790916330734" points="51.11 30.48 45.8 27.49 49.34 27.49 51.11 30.48"/><polygon class="a30a4b83-20da-4b4d-889a-790916330734" points="49.1 34.04 43.79 37.04 45.56 34.04 49.1 34.04"/><polygon class="ae78c163-d188-4e71-933e-3c61ec80703e" points="43.58 37.09 41.73 33.97 43.58 30.84 45.43 33.97 43.58 37.09"/><polygon class="a30a4b83-20da-4b4d-889a-790916330734" points="41.36 34.04 36.05 37.04 37.82 34.04 41.36 34.04"/><polygon class="fc210b4b-2dc8-4fa9-9376-7330ac20be8a" points="35.84 37.09 33.99 33.97 35.84 30.84 37.69 33.97 35.84 37.09"/><polygon class="a30a4b83-20da-4b4d-889a-790916330734" points="33.61 34.04 28.3 37.04 30.07 34.04 33.61 34.04"/><polygon class="aabf53a2-da3c-47d5-a35e-84d429ff0773" points="28.09 37.09 26.25 33.97 28.09 30.84 29.94 33.97 28.09 37.09"/><polygon class="a30a4b83-20da-4b4d-889a-790916330734" points="25.87 34.04 20.56 37.04 22.33 34.04 25.87 34.04"/><polygon class="ae78c163-d188-4e71-933e-3c61ec80703e" points="20.35 37.09 18.5 33.97 20.35 30.84 22.2 33.97 20.35 37.09"/><polygon class="b7cb130c-681f-4f76-9000-d4899fadca72" points="12.71 30.66 14.57 27.51 20.25 30.72 18.39 33.86 12.71 30.66"/><polygon class="b7cb130c-681f-4f76-9000-d4899fadca72" points="12.71 17.55 14.57 14.41 20.25 17.61 18.39 20.76 12.71 17.55"/><polygon class="b7cb130c-681f-4f76-9000-d4899fadca72" points="27.99 11 22.32 14.2 20.46 11.05 26.13 7.85 27.99 11"/><polygon class="aabf53a2-da3c-47d5-a35e-84d429ff0773" points="35.73 11 33.9 12.03 33.9 12.03 30.06 14.2 28.2 11.05 33.87 7.85 33.9 7.9 33.9 7.9 35.73 11"/><polygon class="aabf53a2-da3c-47d5-a35e-84d429ff0773" points="43.48 11 37.8 14.2 35.94 11.05 41.62 7.85 43.48 11"/><polygon class="b7cb130c-681f-4f76-9000-d4899fadca72" points="51.22 11 45.54 14.2 43.68 11.05 49.36 7.85 51.22 11"/><polygon class="b7cb130c-681f-4f76-9000-d4899fadca72" points="43.68 37.27 49.36 34.07 51.22 37.22 45.54 40.42 43.68 37.27"/><polygon class="b7cb130c-681f-4f76-9000-d4899fadca72" points="35.94 37.27 41.62 34.07 43.48 37.22 37.8 40.42 35.94 37.27"/><polygon class="fca4c77d-0ab7-4e94-9738-893bb7257792" points="28.2 37.27 33.87 34.07 33.9 34.12 33.9 34.12 35.73 37.22 33.9 38.25 33.9 38.25 30.06 40.42 28.2 37.27"/><polygon class="b7cb130c-681f-4f76-9000-d4899fadca72" points="20.46 37.27 26.13 34.07 27.99 37.22 22.32 40.42 20.46 37.27"/><polygon class="b7cb130c-681f-4f76-9000-d4899fadca72" points="12.71 37.27 18.39 34.07 20.25 37.22 14.57 40.42 12.71 37.27"/><polygon class="a30a4b83-20da-4b4d-889a-790916330734" points="12.82 37.04 14.59 34.04 18.13 34.04 12.82 37.04"/><polygon class="af7f4d57-423e-4f91-9548-ca4e5307db6e" points="12.82 30.89 18.13 33.89 14.59 33.89 12.82 30.89"/><polygon class="ae78c163-d188-4e71-933e-3c61ec80703e" points="12.61 30.54 10.76 27.41 12.61 24.28 14.46 27.41 12.61 30.54"/><polygon class="a30a4b83-20da-4b4d-889a-790916330734" points="12.82 23.93 14.59 20.93 18.13 20.93 12.82 23.93"/><polygon class="af7f4d57-423e-4f91-9548-ca4e5307db6e" points="12.82 17.79 18.13 20.78 14.59 20.78 12.82 17.79"/><polygon class="ae78c163-d188-4e71-933e-3c61ec80703e" points="12.61 17.43 10.76 14.3 12.61 11.18 14.46 14.3 12.61 17.43"/><polygon class="a30a4b83-20da-4b4d-889a-790916330734" points="12.82 10.82 14.59 7.83 18.13 7.83 12.82 10.82"/><polygon class="af7f4d57-423e-4f91-9548-ca4e5307db6e" points="12.82 4.68 18.13 7.67 14.59 7.67 12.82 4.68"/><polygon class="ae78c163-d188-4e71-933e-3c61ec80703e" points="18.5 7.75 20.35 4.62 22.2 7.75 20.35 10.88 18.5 7.75"/><polygon class="af7f4d57-423e-4f91-9548-ca4e5307db6e" points="20.56 4.68 25.87 7.67 22.33 7.67 20.56 4.68"/><polygon class="ae78c163-d188-4e71-933e-3c61ec80703e" points="26.25 7.75 28.09 4.62 29.94 7.75 28.09 10.88 26.25 7.75"/><polygon class="af7f4d57-423e-4f91-9548-ca4e5307db6e" points="28.3 4.68 33.61 7.67 30.07 7.67 28.3 4.68"/><polygon class="fca4c77d-0ab7-4e94-9738-893bb7257792" points="33.99 7.75 35.84 4.62 37.69 7.75 35.84 10.88 33.99 7.75"/><polygon class="af7f4d57-423e-4f91-9548-ca4e5307db6e" points="36.05 4.68 41.36 7.67 37.82 7.67 36.05 4.68"/><polygon class="fca4c77d-0ab7-4e94-9738-893bb7257792" points="41.73 7.75 43.58 4.62 45.43 7.75 43.58 10.88 41.73 7.75"/><polygon class="af7f4d57-423e-4f91-9548-ca4e5307db6e" points="43.79 4.68 49.1 7.67 45.56 7.67 43.79 4.68"/><polygon class="a30a4b83-20da-4b4d-889a-790916330734" points="51.11 43.59 45.8 40.6 49.34 40.6 51.11 43.59"/><polygon class="ae78c163-d188-4e71-933e-3c61ec80703e" points="45.43 40.52 43.58 43.65 41.73 40.52 43.58 37.39 45.43 40.52"/><polygon class="a30a4b83-20da-4b4d-889a-790916330734" points="43.37 43.59 38.06 40.6 41.6 40.6 43.37 43.59"/><polygon class="fc210b4b-2dc8-4fa9-9376-7330ac20be8a" points="37.69 40.52 35.84 43.65 33.99 40.52 35.84 37.39 37.69 40.52"/><polygon class="a30a4b83-20da-4b4d-889a-790916330734" points="35.63 43.59 33.9 42.62 33.9 42.62 30.32 40.6 33.86 40.6 33.9 40.67 33.9 40.67 35.63 43.59"/><polygon class="fc210b4b-2dc8-4fa9-9376-7330ac20be8a" points="29.94 40.52 28.09 43.65 26.25 40.52 28.09 37.39 29.94 40.52"/><polygon class="a30a4b83-20da-4b4d-889a-790916330734" points="27.89 43.59 22.57 40.6 26.12 40.6 27.89 43.59"/><polygon class="ae78c163-d188-4e71-933e-3c61ec80703e" points="22.2 40.52 20.35 43.65 18.5 40.52 20.35 37.39 22.2 40.52"/><polygon class="a30a4b83-20da-4b4d-889a-790916330734" points="20.14 43.59 14.83 40.6 18.37 40.6 20.14 43.59"/><polygon class="ae78c163-d188-4e71-933e-3c61ec80703e" points="14.46 40.52 12.61 43.65 10.76 40.52 12.61 37.39 14.46 40.52"/><polygon class="a30a4b83-20da-4b4d-889a-790916330734" points="12.4 43.59 7.09 40.6 10.63 40.6 12.4 43.59"/><polygon class="af7f4d57-423e-4f91-9548-ca4e5307db6e" points="7.09 40.45 12.4 37.45 10.63 40.45 7.09 40.45"/><polygon class="ae78c163-d188-4e71-933e-3c61ec80703e" points="12.61 37.09 10.76 33.97 12.61 30.84 14.46 33.97 12.61 37.09"/><polygon class="a30a4b83-20da-4b4d-889a-790916330734" points="12.4 30.48 7.09 27.49 10.63 27.49 12.4 30.48"/><polygon class="af7f4d57-423e-4f91-9548-ca4e5307db6e" points="7.09 27.34 12.4 24.34 10.63 27.34 7.09 27.34"/><polygon class="ae78c163-d188-4e71-933e-3c61ec80703e" points="12.61 23.99 10.76 20.86 12.61 17.73 14.46 20.86 12.61 23.99"/><polygon class="a30a4b83-20da-4b4d-889a-790916330734" points="12.4 17.38 7.09 14.38 10.63 14.38 12.4 17.38"/><polygon class="af7f4d57-423e-4f91-9548-ca4e5307db6e" points="7.09 14.23 12.4 11.23 10.63 14.23 7.09 14.23"/><polygon class="ae78c163-d188-4e71-933e-3c61ec80703e" points="12.61 10.88 10.76 7.75 12.61 4.62 14.46 7.75 12.61 10.88"/><polygon class="b7cb130c-681f-4f76-9000-d4899fadca72" points="51.22 43.83 49.36 46.97 43.68 43.77 45.54 40.62 51.22 43.83"/><polygon class="b7cb130c-681f-4f76-9000-d4899fadca72" points="43.48 43.83 41.62 46.97 35.94 43.77 37.8 40.62 43.48 43.83"/><polygon class="b7cb130c-681f-4f76-9000-d4899fadca72" points="35.73 43.83 33.9 46.93 33.9 46.93 33.87 46.97 28.2 43.77 30.06 40.62 33.9 42.79 33.9 42.79 35.73 43.83"/><polygon class="b7cb130c-681f-4f76-9000-d4899fadca72" points="27.99 43.83 26.13 46.97 20.46 43.77 22.32 40.62 27.99 43.83"/><polygon class="b7cb130c-681f-4f76-9000-d4899fadca72" points="20.25 43.83 18.39 46.97 12.71 43.77 14.57 40.62 20.25 43.83"/><polygon class="b7cb130c-681f-4f76-9000-d4899fadca72" points="4.97 37.27 10.65 34.07 12.51 37.22 6.83 40.42 4.97 37.27"/><polygon class="a30a4b83-20da-4b4d-889a-790916330734" points="5.08 37.04 6.85 34.04 10.39 34.04 5.08 37.04"/><polygon class="af7f4d57-423e-4f91-9548-ca4e5307db6e" points="5.08 30.89 10.39 33.89 6.85 33.89 5.08 30.89"/><polygon class="b7cb130c-681f-4f76-9000-d4899fadca72" points="4.97 30.66 6.83 27.51 12.51 30.72 10.65 33.86 4.97 30.66"/><polygon class="b7cb130c-681f-4f76-9000-d4899fadca72" points="4.97 24.16 5.02 24.14 5.02 24.14 10.65 20.96 12.51 24.11 12.46 24.14 12.46 24.14 6.83 27.31 4.97 24.16"/><polygon class="a30a4b83-20da-4b4d-889a-790916330734" points="5.08 23.93 6.85 20.93 10.39 20.93 5.08 23.93"/><polygon class="af7f4d57-423e-4f91-9548-ca4e5307db6e" points="5.08 17.79 10.39 20.78 6.85 20.78 5.08 17.79"/><polygon class="b7cb130c-681f-4f76-9000-d4899fadca72" points="4.97 17.55 6.83 14.41 12.51 17.61 10.65 20.76 4.97 17.55"/><polygon class="b7cb130c-681f-4f76-9000-d4899fadca72" points="4.97 11.05 10.65 7.85 12.51 11 6.83 14.2 4.97 11.05"/><polygon class="a30a4b83-20da-4b4d-889a-790916330734" points="5.08 10.82 6.85 7.83 10.39 7.83 5.08 10.82"/><polygon class="af7f4d57-423e-4f91-9548-ca4e5307db6e" points="5.08 4.68 10.39 7.67 6.85 7.67 5.08 4.68"/><polygon class="b7cb130c-681f-4f76-9000-d4899fadca72" points="4.97 4.44 6.83 1.3 12.51 4.5 10.65 7.65 4.97 4.44"/><polygon class="a30a4b83-20da-4b4d-889a-790916330734" points="7.09 1.27 10.63 1.27 12.4 4.27 7.09 1.27"/><polygon class="ae78c163-d188-4e71-933e-3c61ec80703e" points="10.76 1.2 12.61 -1.93 14.46 1.2 12.61 4.32 10.76 1.2"/><polygon class="a30a4b83-20da-4b4d-889a-790916330734" points="14.83 1.27 18.37 1.27 20.14 4.27 14.83 1.27"/><polygon class="ae78c163-d188-4e71-933e-3c61ec80703e" points="18.5 1.2 20.35 -1.93 22.2 1.2 20.35 4.32 18.5 1.2"/><polygon class="a30a4b83-20da-4b4d-889a-790916330734" points="22.57 1.27 26.12 1.27 27.89 4.27 22.57 1.27"/><polygon class="ae78c163-d188-4e71-933e-3c61ec80703e" points="26.25 1.2 28.09 -1.93 29.94 1.2 28.09 4.32 26.25 1.2"/><polygon class="a30a4b83-20da-4b4d-889a-790916330734" points="30.32 1.27 33.86 1.27 33.9 1.34 33.9 1.34 35.63 4.27 33.9 3.29 33.9 3.29 30.32 1.27"/><polygon class="ae78c163-d188-4e71-933e-3c61ec80703e" points="33.99 1.2 35.84 -1.93 37.69 1.2 35.84 4.32 33.99 1.2"/><polygon class="a30a4b83-20da-4b4d-889a-790916330734" points="38.06 1.27 41.6 1.27 43.37 4.27 38.06 1.27"/><polygon class="ae78c163-d188-4e71-933e-3c61ec80703e" points="41.73 1.2 43.58 -1.93 45.43 1.2 43.58 4.32 41.73 1.2"/><polygon class="a30a4b83-20da-4b4d-889a-790916330734" points="45.8 1.27 49.34 1.27 51.11 4.27 45.8 1.27"/><polygon class="a30a4b83-20da-4b4d-889a-790916330734" points="49.1 47.15 43.79 50.15 45.56 47.15 49.1 47.15"/><polygon class="ae78c163-d188-4e71-933e-3c61ec80703e" points="43.58 50.2 41.73 47.08 43.58 43.95 45.43 47.08 43.58 50.2"/><polygon class="a30a4b83-20da-4b4d-889a-790916330734" points="41.36 47.15 36.05 50.15 37.82 47.15 41.36 47.15"/><polygon class="ae78c163-d188-4e71-933e-3c61ec80703e" points="35.84 50.2 33.99 47.08 35.84 43.95 37.69 47.08 35.84 50.2"/><polygon class="a30a4b83-20da-4b4d-889a-790916330734" points="33.61 47.15 28.3 50.15 30.07 47.15 33.61 47.15"/><polygon class="ae78c163-d188-4e71-933e-3c61ec80703e" points="28.09 50.2 26.25 47.08 28.09 43.95 29.94 47.08 28.09 50.2"/><polygon class="a30a4b83-20da-4b4d-889a-790916330734" points="25.87 47.15 20.56 50.15 22.33 47.15 25.87 47.15"/><polygon class="ae78c163-d188-4e71-933e-3c61ec80703e" points="20.35 50.2 18.5 47.08 20.35 43.95 22.2 47.08 20.35 50.2"/><polygon class="a30a4b83-20da-4b4d-889a-790916330734" points="18.13 47.15 12.82 50.15 14.59 47.15 18.13 47.15"/><polygon class="ae78c163-d188-4e71-933e-3c61ec80703e" points="12.61 50.2 10.76 47.08 12.61 43.95 14.46 47.08 12.61 50.2"/><polygon class="a30a4b83-20da-4b4d-889a-790916330734" points="10.39 47.15 5.08 50.15 6.85 47.15 10.39 47.15"/><polygon class="ae78c163-d188-4e71-933e-3c61ec80703e" points="4.87 50.2 3.02 47.08 4.87 43.95 6.71 47.08 4.87 50.2"/><polygon class="ae78c163-d188-4e71-933e-3c61ec80703e" points="4.87 43.65 3.02 40.52 4.87 37.39 6.71 40.52 4.87 43.65"/><polygon class="ae78c163-d188-4e71-933e-3c61ec80703e" points="4.87 37.09 3.02 33.97 4.87 30.84 6.71 33.97 4.87 37.09"/><polygon class="ae78c163-d188-4e71-933e-3c61ec80703e" points="4.87 30.54 3.02 27.41 4.87 24.28 6.71 27.41 4.87 30.54"/><polygon class="ae78c163-d188-4e71-933e-3c61ec80703e" points="4.87 23.99 3.02 20.86 4.87 17.73 6.71 20.86 4.87 23.99"/><polygon class="ae78c163-d188-4e71-933e-3c61ec80703e" points="4.87 17.43 3.02 14.3 4.87 11.18 6.71 14.3 4.87 17.43"/><polygon class="ae78c163-d188-4e71-933e-3c61ec80703e" points="4.87 10.88 3.02 7.75 4.87 4.62 6.71 7.75 4.87 10.88"/><polygon class="ae78c163-d188-4e71-933e-3c61ec80703e" points="4.87 4.32 3.02 1.2 4.87 -1.93 6.71 1.2 4.87 4.32"/><polygon class="af7f4d57-423e-4f91-9548-ca4e5307db6e" points="12.4 -1.88 10.63 1.12 7.09 1.12 12.4 -1.88"/><polygon class="af7f4d57-423e-4f91-9548-ca4e5307db6e" points="20.14 -1.88 18.37 1.12 14.83 1.12 20.14 -1.88"/><polygon class="af7f4d57-423e-4f91-9548-ca4e5307db6e" points="27.89 -1.88 26.12 1.12 22.57 1.12 27.89 -1.88"/><polygon class="af7f4d57-423e-4f91-9548-ca4e5307db6e" points="35.63 -1.88 33.9 1.05 33.9 1.05 33.86 1.12 30.32 1.12 33.9 -0.9 33.9 -0.9 35.63 -1.88"/><polygon class="af7f4d57-423e-4f91-9548-ca4e5307db6e" points="43.37 -1.88 41.6 1.12 38.06 1.12 43.37 -1.88"/><polygon class="af7f4d57-423e-4f91-9548-ca4e5307db6e" points="51.11 -1.88 49.34 1.12 45.8 1.12 51.11 -1.88"/></g><g class="a5d27002-073e-4bb8-ad35-d90daf38d1f3"><path class="f65b7277-5ac9-4f0d-a232-4963e9eca7bb" d="M45.07-1.08l-1.78-1H43L43-2,41.17,1.09,35.54-2.08h-.3l0,0L33.43,1.09,27.8-2.08h-.31l.05,0L25.68,1.09,20.06-2.08h-.31l.05,0L17.94,1.09,14.1-1.08h0l-1.78-1H12l.05,0L10.2,1.09,4.57-2.08h-.3l.05,0L2.46,1.09-3.17-2.08h-.31l0,0L-5.29,1.09l-5.62-3.17h-.31l.05,0L-13,1.09l-3.84-2.17V-.9l3.58,2h-3.54l0-.07v.29l0-.07h3.54l-3.58,2v.18L-13,1.3l1.86,3.14-5.67,3.21,0-.05v.06h0v.08h0V7.9l0-.05,5.67,3.2L-13,14.2-16.87,12v.18l3.58,2h-3.54l0-.08v.3l0-.07h3.54l-3.58,2v.17L-13,14.41l1.86,3.14-5.67,3.21,0-.05v.06h0v.08h0v.07h0V21l0-.05,5.62,3.17h0l.05,0L-13,27.31l-3.84-2.17v.17l3.58,2h-3.54l0-.08v.3l0-.07h3.54l-3.58,2v.17L-13,27.51l1.86,3.15-5.67,3.2,0,0v.06h0V34h0V34h0v.06l0,0,5.67,3.2L-13,40.42l-3.84-2.17v.17l3.58,2h-3.54l0-.08v.3l0-.07h3.54l-3.58,2v.17L-13,40.62l1.86,3.15L-16.84,47l0,0V47h0v.07h0v.07h0v.06l0,0,5.62,3.17h.31l-.05,0,1.86-3.14,5.62,3.17h.31l-.05,0,1.86-3.14,5.63,3.17h.3l-.05,0,1.86-3.14L12,50.35h.31l-.05,0,1.83-3.1h0l0,0,5.62,3.17h.31l0,0,1.86-3.14,5.62,3.17h.31l-.05,0,1.86-3.14,5.63,3.17h.3l0,0,1.86-3.14L43,50.35h.31l0,0,1.83-3.1v-.06h0v-.07h0V47h0v-.06l-1.83-3.1,1.83-1v-.17l-1.73,1,1.73-2.92v-.3l-1.73-2.92,1.73,1v-.17l-1.83-1,1.83-3.11v-.06h0V34h0v-.08h0v-.06l-1.83-3.1,1.83-1v-.17l-1.73,1,1.73-2.92v-.3l-1.73-2.92,1.73,1v-.17l-1.78-1h0l0,0L45.07,21v-.07h0v-.07h0v-.08h0v-.06l-1.83-3.1,1.83-1V16.4l-1.73,1,1.73-2.93v-.3l-1.73-2.92,1.73,1V12l-1.83-1,1.83-3.1V7.75h0V7.67h0V7.6L43.24,4.5l1.83-1V3.29l-1.73,1,1.73-2.93V1.05L43.34-1.88l1.73,1ZM41.15,47H37.61l5.31-3Zm-3.8,0-1.86-3.14,5.68-3.21L43,43.77Zm-3.94,0H29.87l5.31-3Zm-7.74,0H22.13l5.31-3Zm-7.74,0H14.39l5.31-3Zm-7.75,0H6.64L12,44ZM2.44,47H-1.1l5.31-3ZM-5.3,47H-8.84l5.31-3Zm0-45.7,1.86,3.14L-9.1,7.65-11,4.5Zm7.75,0L4.32,4.44-1.36,7.65-3.22,4.5Zm7.74,0,1.86,3.14L6.38,7.65,4.52,4.5Zm7.74,0L19.8,4.44,14.13,7.65l0-.05h0L12.27,4.5l1.83-1h0Zm7.74,0,1.86,3.14L21.87,7.65,20,4.5Zm7.75,0,1.86,3.14L29.61,7.65,27.75,4.5ZM-10.91,24.13l-.05,0L-9.1,21l5.62,3.17h0l0,0-1.86,3.15-5.62-3.18ZM27.86,37.45l5.31,3H29.63Zm-7.75,0,5.31,3H21.88Zm-6,2.92h0l-1.73-2.92,1.73,1h0l3.58,2H14.14ZM4.63,37.45l5.31,3H6.4Zm-7.74,0,5.31,3H-1.34Zm-.42-26.63-5.31-3H-5.3Zm7.74,0-5.31-3H2.44Zm7.74,0-5.31-3h3.54Zm7.75,0-5.31-3h3.54Zm7.74,0-5.31-3h3.54Zm2.17-3,5.68,3.2L33.43,14.2,27.75,11Zm5.68,16.31-1.86,3.15L27.8,24.13h0l-.05,0L29.61,21l5.63,3.17h0ZM17.68,14.23H14.14l0-.08h0l-1.73-2.92,1.73,1h0Zm8,19.66H22.13l5.31-3Zm-7.74,0H14.39l5.31-3Zm-7.75,0H6.64l5.31-3Zm-7.74,0H-1.1l5.31-3Zm-5.61-9.76-.05,0L-1.36,21l5.63,3.17h0l.05,0L2.46,27.31l-5.63-3.18Zm5.63-9.72,1.86,3.14-5.68,3.21-1.86-3.15Zm3.94,0H9.94l-5.31,3Zm7.7.07h0l0-.07h3.54l-3.58,2h0l-1.73,1Zm7.78-.07h3.54l-5.31,3Zm5.66,9.78-1.86,3.15-5.62-3.18h0l0,0L21.87,21l5.62,3.17h0Zm-7.43.18,5.31,3H21.88Zm-6,2.92h0l-1.73-2.92,1.73,1h0l3.58,2H14.14ZM4.63,24.34l5.31,3H6.4Zm5.57,3L4.57,24.13h0l-.05,0L6.38,21,12,24.13h0l.05,0ZM12,23.93l-5.31-3h3.54Zm6,3.38L14.1,25.14h0l-1.78-1h0l-.05,0L14.1,21h0l0-.05,5.62,3.17h0l.05,0Zm1.76-3.38-5.31-3h3.54Zm.21.06-1.85-3.13,1.85-3.13,1.84,3.13Zm-2-3.21H14.39l5.31-3ZM12.16,24l-1.85-3.13,1.85-3.13L14,20.86Zm-2-3.21H6.64l5.31-3ZM4.42,24,2.57,20.86l1.85-3.13,1.85,3.13Zm-2-3.21H-1.1l5.31-3Zm0,.15,1.77,3-5.31-3Zm3.83,6.48L4.42,30.54,2.57,27.41l1.85-3.13Zm.13.08H9.94l-5.31,3Zm5.76-3.21L14,27.41l-1.85,3.13-1.85-3.13Zm1.94,3.28h0l0-.07h3.54l-3.58,2h0l-1.73,1Zm5.81-3.28,1.84,3.13-1.84,3.13-1.85-3.13Zm2,3.21h3.54l-5.31,3Zm5.77-3.21,1.85,3.13-1.85,3.13L25.8,27.41Zm-5.52-3.35h3.54l1.77,3Zm3.54-.15H22.13l5.31-3Zm-3.8,0L20,17.61l5.67-3.2,1.86,3.14Zm-7.74,0,0-.05h0l-1.83-3.1,1.83-1h0l3.84-2.16,1.86,3.14Zm-7.75,0L4.52,17.61l5.68-3.2,1.86,3.14ZM2.46,27.51l1.86,3.15-5.68,3.2-1.86-3.14Zm7.74,0,1.86,3.15-5.68,3.2L4.52,30.72Zm3.9,2.17h0l3.84-2.17,1.86,3.15-5.67,3.2,0,0h0l-1.83-3.1Zm11.58-2.17,1.86,3.15-5.67,3.2L20,30.72Zm3.95,0h3.54l-5.31,3Zm0-.15-1.77-3,5.31,3ZM25.8,20.86l1.85-3.13,1.85,3.13L27.65,24Zm3.83-6.48h3.54l-5.31,3Zm0-.15-1.77-3,5.31,3Zm-.13.07-1.85,3.13L25.8,14.3l1.85-3.13Zm-7.62-.07-1.77-3,5.31,3Zm-.13.07-1.84,3.13L18.06,14.3l1.85-3.13ZM14,14.3l-1.85,3.13L10.31,14.3l1.85-3.13ZM6.4,14.23l-1.77-3,5.31,3Zm-.13.07L4.42,17.43,2.57,14.3l1.85-3.13Zm-9.38-3.07,5.31,3H-1.34Zm1.77,3.15H2.2l-5.31,3Zm-.13,6.48L-3.32,24l-1.85-3.13,1.85-3.13ZM2.2,27.34H-1.34l-1.77-3Zm-3.54.15H2.2l-5.31,3ZM-1.47,34l-1.85,3.12L-5.17,34l1.85-3.13ZM2.44,34l1.77,3L-1.1,34ZM2.57,34l1.85-3.13L6.27,34,4.42,37.09Zm7.61.07L12,37,6.64,34Zm.13-.07,1.85-3.13L14,34l-1.85,3.12Zm7.62.07,1.77,3-5.31-3Zm.13-.07,1.85-3.13L21.75,34l-1.84,3.12Zm7.61.07,1.77,3-5.31-3ZM25.8,34l1.85-3.13L29.5,34l-1.85,3.12Zm3.81-.11-1.86-3.14,5.68-3.21,1.86,3.15Zm0-13.1-1.86-3.15,5.68-3.2,1.86,3.14ZM21.87,7.85l5.67,3.2L25.68,14.2,20,11ZM14.1,7.9h0l0-.05,5.67,3.2L17.94,14.2,14.1,12h0l-1.83-1ZM6.38,7.85l5.68,3.2L10.2,14.2,4.52,11Zm-7.74,0,5.68,3.2L2.46,14.2-3.22,11Zm-.11,6.45-1.85,3.13L-5.17,14.3l1.85-3.13ZM-5.3,20.78H-8.84l5.31-3Zm0,.15,1.77,3-5.31-3Zm3.83,6.48-1.85,3.13-1.85-3.13,1.85-3.13ZM-5.3,33.89H-8.84l5.31-3Zm0,.15,1.77,3-5.31-3Zm7.76,6.38-5.68-3.2,1.86-3.15,5.68,3.2Zm7.74,0-5.68-3.2,1.86-3.15,5.68,3.2Zm7.74,0L14.1,38.25h0l-1.83-1,1.83-3.11h0l0,0,5.67,3.2Zm7.74,0L20,37.22l1.86-3.15,5.67,3.2Zm7.75,0-5.68-3.2,1.86-3.15,5.68,3.2ZM29.87,34h3.54l1.77,3Zm3.54-.15H29.87l5.31-3Zm.13-6.48,1.85-3.13,1.85,3.13-1.85,3.13Zm-3.67-6.48h3.54l1.77,3Zm3.54-.15H29.87l5.31-3Zm.13-6.48,1.85-3.13,1.85,3.13-1.85,3.13ZM29.87,7.82h3.54l1.77,3Zm3.54-.15H29.87l5.31-3Zm-5.76,3.21L25.8,7.75l1.85-3.13L29.5,7.75Zm-2-3.21H22.13l5.31-3Zm-5.76,3.21L18.06,7.75l1.85-3.13,1.84,3.13Zm-2-3.21H14.39l5.31-3Zm-5.77,3.21L10.31,7.75l1.85-3.13L14,7.75Zm-2-3.21H6.64l5.31-3ZM4.42,10.88,2.57,7.75,4.42,4.62,6.27,7.75Zm-2-3.21H-1.1l5.31-3Zm-5.76,3.21L-5.17,7.75l1.85-3.13,1.85,3.13Zm-2-3.21H-8.84l5.31-3Zm-3.8.18,5.67,3.2L-5.29,14.2-11,11Zm3.81,6.56,1.86,3.14L-9.1,20.76-11,17.61Zm0,13.1,1.86,3.15-5.67,3.2L-11,30.72ZM-9.1,34.07l5.67,3.2-1.86,3.15L-11,37.22Zm5.78,3.32,1.85,3.13-1.85,3.13-1.85-3.13Zm2,3.21H2.2l-5.31,3Zm5.76-3.21,1.85,3.13L4.42,43.65,2.57,40.52Zm2,3.21H9.94l-5.31,3Zm5.76-3.21L14,40.52l-1.85,3.13-1.85-3.13Zm1.94,3.28h0l0-.07h3.54l-3.58,2h0l-1.73,1Zm5.81-3.28,1.84,3.13-1.84,3.13-1.85-3.13Zm2,3.21h3.54l-5.31,3Zm5.77-3.21,1.85,3.13-1.85,3.13L25.8,40.52Zm2,3.21h3.54l-5.31,3Zm5.76-3.21,1.85,3.13-1.85,3.13-1.85-3.13Zm2,3.21h3.54l-5.31,3Zm0-.15-1.77-3,5.31,3ZM33.54,34l1.85-3.13L37.24,34l-1.85,3.12Zm3.83-6.48h3.54l-5.31,3Zm0-.15-1.77-3,5.31,3Zm-3.83-6.48,1.85-3.13,1.85,3.13L35.39,24Zm3.83-6.48h3.54l-5.31,3Zm0-.15-1.77-3,5.31,3ZM33.54,7.75l1.85-3.13,1.85,3.13-1.85,3.13Zm-42.76,0-1.85,3.13-1.84-3.13,1.84-3.13Zm3.67,6.48H-9.09l-1.77-3Zm-3.54.15h3.54l-5.31,3Zm-.13,6.48L-11.07,24l-1.84-3.13,1.84-3.13Zm3.67,6.48H-9.09l-1.77-3Zm-3.54.15h3.54l-5.31,3ZM-9.22,34l-1.85,3.12L-12.91,34l1.84-3.13Zm3.67,6.48H-9.09l-1.77-3Zm-3.54.15h3.54l-5.31,3Zm3.8,0,1.86,3.15L-9.1,47-11,43.83Zm7.75,0,1.86,3.15L-1.36,47l-1.86-3.14Zm7.74,0,1.86,3.15L6.38,47,4.52,43.83Zm3.9,2.17h0l3.84-2.17,1.86,3.15L14.13,47l0,0h0l-1.83-3.1Zm11.58-2.17,1.86,3.15L21.87,47,20,43.83Zm7.75,0,1.86,3.15L29.61,47l-1.86-3.14Zm7.74-.2-5.68-3.2,1.86-3.15L43,37.27ZM37.61,34h3.54l1.77,3Zm3.54-.15H37.61l5.31-3Zm-3.8,0-1.86-3.14,5.68-3.21L43,30.66Zm3.82-6.55-5.63-3.18h0l0,0L37.35,21,43,24.13h0l.05,0Zm-3.56-6.38h3.54l1.77,3Zm3.54-.15H37.61l5.31-3Zm-3.8,0-1.86-3.15,5.68-3.2L43,17.55Zm3.82-6.56L35.49,11l1.86-3.15L43,11.05ZM37.61,7.82h3.54l1.77,3Zm3.54-.15H37.61l5.31-3Zm-3.8,0L35.49,4.5l5.68-3.2L43,4.44ZM35.6,4.27l1.77-3h3.54Zm-.21.05L33.54,1.19l1.85-3.12,1.85,3.12Zm-7.53-.05,1.77-3h3.54Zm-.21.05L25.8,1.19l1.85-3.12L29.5,1.19Zm-7.54-.05,1.77-3h3.54Zm-.2.05L18.06,1.19l1.85-3.12,1.84,3.12Zm-5.81-1h0l-1.73,1L14.1,1.34h0l0-.07h3.54Zm-1.94,1L10.31,1.19l1.85-3.12L14,1.19ZM4.63,4.27l1.77-3H9.94Zm-.21.05L2.57,1.19,4.42-1.93,6.27,1.19Zm-7.53-.05,1.77-3H2.2Zm-.21.05L-5.17,1.19l1.85-3.12,1.85,3.12Zm-7.54-.05,1.77-3h3.54Zm-.21.05-1.84-3.13,1.84-3.12,1.85,3.12Zm-2,3.35h-3.54l5.31-3Zm0,.15,1.77,3-5.31-3Zm3.82,6.48-1.85,3.13-1.84-3.13,1.84-3.13ZM-13,20.78h-3.54l5.31-3Zm0,.15,1.77,3-5.31-3Zm3.82,6.48-1.85,3.13-1.84-3.13,1.84-3.13ZM-13,33.89h-3.54l5.31-3Zm0,.15,1.77,3-5.31-3Zm3.82,6.48-1.85,3.13-1.84-3.13,1.84-3.13ZM-13,47h-3.54l5.31-3Zm0,.15,1.77,3-5.31-3Zm.13-.07L-11.07,44l1.85,3.13-1.85,3.12Zm7.61.07,1.77,3-5.31-3Zm.13-.07L-3.32,44l1.85,3.13L-3.32,50.2Zm7.61.07,1.77,3-5.31-3Zm.13-.07L4.42,44l1.85,3.13L4.42,50.2Zm7.61.07,1.77,3-5.31-3Zm.13-.07L12.16,44,14,47.08,12.16,50.2Zm7.62.07,1.77,3-5.31-3Zm.13-.07L19.91,44l1.84,3.13L19.91,50.2Zm7.61.07,1.77,3-5.31-3Zm.13-.07L27.65,44l1.85,3.13L27.65,50.2Zm7.61.07,1.77,3-5.31-3Zm.13-.07L35.39,44l1.85,3.13L35.39,50.2Zm7.61.07,1.77,3-5.31-3Zm.14-.07L43.13,44,45,47.08,43.13,50.2Zm0-6.56,1.84-3.13L45,40.52l-1.85,3.13Zm0-6.55,1.84-3.13L45,34l-1.85,3.12Zm0-6.56,1.84-3.13L45,27.41l-1.85,3.13Zm0-6.55,1.84-3.13L45,20.86,43.13,24Zm0-6.56,1.84-3.13L45,14.3l-1.85,3.13Zm0-6.55,1.84-3.13L45,7.75l-1.85,3.13Zm0-6.56,1.84-3.12L45,1.19,43.13,4.32Zm-.38-.07H37.37l-1.77-3Zm-7.74,0H29.63l-1.77-3Zm-7.75,0H21.88l-1.77-3ZM14.1-.9h0l3.58,2H14.14l0-.07h0L12.37-1.88Zm-4.16,2H6.4l-1.77-3Zm-7.74,0H-1.34l-1.77-3Zm-7.75,0H-9.09l-1.77-3Z"/></g><path class="a648f693-0cd9-4dd3-af6a-86893a90a143" d="M24,22.37l-4.37-7.59h0L12.45,8.49l0,0h0L3.9,6.9h0l-3,1h0s0,0,0,0h0V8h0V8h0l1.12,3.14,5.48,13.3s0,0,0,0l0,0h.05l2.88.61-3.14,2h0a0,0,0,0,1,0,0,.05.05,0,0,0,0,0h0l-1,3.58h0s0,0,0,0v.05h0l5.92,11.07,0,0h0l.05,0h0l3.92.45h0l.06,0,4.92-3.8v0h0L24,32.32h0s0,0,0,0Z"/><path class="ae78c163-d188-4e71-933e-3c61ec80703e" d="M-98.07,18.58-84.41-5.17h0l0-.05s0,0,0,0L-62-24.84a.33.33,0,0,1,.16-.07h0l26.58-4.9h0a.29.29,0,0,1,.16,0l9.44,3.15h0l0,0h.05l0,0,0,.06h0s0,0,0,0a.24.24,0,0,1,0,.08s0,0,0,.05,0,0,0,0v.06s0,0,0,0l-3.51,9.81L-46,25.21s0,0,0,0a.16.16,0,0,1-.06.08s0,0,0,0h0l0,0s0,0-.06,0l-9,1.93,9.81,6.22s0,0,0,0,0,0,0,0a.5.5,0,0,1,.08.12h0l3.14,11.19a0,0,0,0,1,0,0v0h0v0a.37.37,0,0,1,0,.12.08.08,0,0,0,0,0h0L-60.75,79.8l-.06.07s0,0,0,0A.38.38,0,0,1-61,80h0l-12.24,1.39h0a.48.48,0,0,1-.2-.07l-15.39-11.9,0,0h0s0,0,0,0h0l0,0-9.1-19.59v0a.45.45,0,0,1,0-.11Z"/><g class="a90033ab-7858-4313-a47a-3efc4ae86a72"><polygon class="b7cb130c-681f-4f76-9000-d4899fadca72" points="11.12 24.11 -6.48 34.05 -12.3 24.2 -12.14 24.11 -12.14 24.11 5.46 14.18 11.27 24.02 11.12 24.11 11.12 24.11"/><polygon class="af7f4d57-423e-4f91-9548-ca4e5307db6e" points="-11.97 4.25 4.64 13.62 -6.43 13.62 -11.97 4.25"/><polygon class="a30a4b83-20da-4b4d-889a-790916330734" points="4.64 14.1 -11.97 23.47 -6.43 14.1 4.64 14.1"/><polygon class="af7f4d57-423e-4f91-9548-ca4e5307db6e" points="-11.97 45.26 4.64 54.63 -6.43 54.63 -11.97 45.26"/><polygon class="b7cb130c-681f-4f76-9000-d4899fadca72" points="11.27 3.69 5.46 13.54 -12.3 3.52 -6.48 -6.33 11.27 3.69"/><polygon class="b7cb130c-681f-4f76-9000-d4899fadca72" points="11.27 44.7 5.46 54.55 -12.3 44.53 -6.48 34.69 11.27 44.7"/><polygon class="a30a4b83-20da-4b4d-889a-790916330734" points="10.95 2.97 -5.67 -6.41 5.41 -6.41 10.95 2.97"/><polygon class="ae78c163-d188-4e71-933e-3c61ec80703e" points="11.6 4.07 17.38 13.86 11.6 23.65 5.82 13.86 11.6 4.07"/><polygon class="af7f4d57-423e-4f91-9548-ca4e5307db6e" points="10.95 24.75 5.41 34.13 -5.67 34.13 10.95 24.75"/><polygon class="a30a4b83-20da-4b4d-889a-790916330734" points="10.95 43.98 -5.67 34.6 5.41 34.6 10.95 43.98"/><polygon class="ae78c163-d188-4e71-933e-3c61ec80703e" points="11.6 45.08 17.38 54.87 11.6 64.66 5.82 54.87 11.6 45.08"/><polygon class="ae78c163-d188-4e71-933e-3c61ec80703e" points="11.6 -16.43 17.38 -6.64 11.6 3.14 5.82 -6.64 11.6 -16.43"/><polygon class="af7f4d57-423e-4f91-9548-ca4e5307db6e" points="12.25 4.25 28.87 13.62 17.79 13.62 12.25 4.25"/><polygon class="a30a4b83-20da-4b4d-889a-790916330734" points="28.87 14.1 12.25 23.47 17.79 14.1 28.87 14.1"/><polygon class="ae78c163-d188-4e71-933e-3c61ec80703e" points="11.6 24.58 17.38 34.37 11.6 44.15 5.82 34.37 11.6 24.58"/><polygon class="af7f4d57-423e-4f91-9548-ca4e5307db6e" points="12.25 45.26 28.86 54.63 17.79 54.63 12.25 45.26"/></g></svg>